<mxfile host="app.diagrams.net" modified="2023-06-09T05:34:02.093Z" agent="Mozilla/5.0 (Windows NT 10.0; Win64; x64) AppleWebKit/537.36 (KHTML, like Gecko) Chrome/114.0.0.0 Safari/537.36" etag="kDNP-NBgvuFoIQkQSbR-" version="21.3.7" type="github">
  <diagram id="C5RBs43oDa-KdzZeNtuy" name="Page-1">
    <mxGraphModel dx="1974" dy="637" grid="1" gridSize="10" guides="1" tooltips="1" connect="1" arrows="1" fold="1" page="1" pageScale="1" pageWidth="827" pageHeight="1169" math="0" shadow="0">
      <root>
        <mxCell id="WIyWlLk6GJQsqaUBKTNV-0" />
        <mxCell id="WIyWlLk6GJQsqaUBKTNV-1" parent="WIyWlLk6GJQsqaUBKTNV-0" />
        <mxCell id="zkfFHV4jXpPFQw0GAbJ--0" value="GrGLRenderTarget" style="swimlane;fontStyle=2;align=center;verticalAlign=top;childLayout=stackLayout;horizontal=1;startSize=26;horizontalStack=0;resizeParent=1;resizeLast=0;collapsible=1;marginBottom=0;rounded=0;shadow=0;strokeWidth=1;" parent="WIyWlLk6GJQsqaUBKTNV-1" vertex="1">
          <mxGeometry x="220" y="120" width="160" height="138" as="geometry">
            <mxRectangle x="230" y="140" width="160" height="26" as="alternateBounds" />
          </mxGeometry>
        </mxCell>
        <mxCell id="Zyp3x8G9PnxRjoicoujC-2" style="edgeStyle=orthogonalEdgeStyle;rounded=0;orthogonalLoop=1;jettySize=auto;html=1;" edge="1" parent="zkfFHV4jXpPFQw0GAbJ--0" source="zkfFHV4jXpPFQw0GAbJ--1">
          <mxGeometry relative="1" as="geometry">
            <mxPoint x="-80" y="39" as="targetPoint" />
          </mxGeometry>
        </mxCell>
        <mxCell id="zkfFHV4jXpPFQw0GAbJ--1" value="IDs" style="text;align=left;verticalAlign=top;spacingLeft=4;spacingRight=4;overflow=hidden;rotatable=0;points=[[0,0.5],[1,0.5]];portConstraint=eastwest;" parent="zkfFHV4jXpPFQw0GAbJ--0" vertex="1">
          <mxGeometry y="26" width="160" height="26" as="geometry" />
        </mxCell>
        <mxCell id="zkfFHV4jXpPFQw0GAbJ--2" value="Phone Number" style="text;align=left;verticalAlign=top;spacingLeft=4;spacingRight=4;overflow=hidden;rotatable=0;points=[[0,0.5],[1,0.5]];portConstraint=eastwest;rounded=0;shadow=0;html=0;" parent="zkfFHV4jXpPFQw0GAbJ--0" vertex="1">
          <mxGeometry y="52" width="160" height="26" as="geometry" />
        </mxCell>
        <mxCell id="zkfFHV4jXpPFQw0GAbJ--3" value="Email Address" style="text;align=left;verticalAlign=top;spacingLeft=4;spacingRight=4;overflow=hidden;rotatable=0;points=[[0,0.5],[1,0.5]];portConstraint=eastwest;rounded=0;shadow=0;html=0;" parent="zkfFHV4jXpPFQw0GAbJ--0" vertex="1">
          <mxGeometry y="78" width="160" height="26" as="geometry" />
        </mxCell>
        <mxCell id="zkfFHV4jXpPFQw0GAbJ--4" value="" style="line;html=1;strokeWidth=1;align=left;verticalAlign=middle;spacingTop=-1;spacingLeft=3;spacingRight=3;rotatable=0;labelPosition=right;points=[];portConstraint=eastwest;" parent="zkfFHV4jXpPFQw0GAbJ--0" vertex="1">
          <mxGeometry y="104" width="160" height="8" as="geometry" />
        </mxCell>
        <mxCell id="zkfFHV4jXpPFQw0GAbJ--5" value="Purchase Parking Pass" style="text;align=left;verticalAlign=top;spacingLeft=4;spacingRight=4;overflow=hidden;rotatable=0;points=[[0,0.5],[1,0.5]];portConstraint=eastwest;" parent="zkfFHV4jXpPFQw0GAbJ--0" vertex="1">
          <mxGeometry y="112" width="160" height="26" as="geometry" />
        </mxCell>
        <mxCell id="zkfFHV4jXpPFQw0GAbJ--6" value="GrRenderTarget" style="swimlane;fontStyle=0;align=center;verticalAlign=top;childLayout=stackLayout;horizontal=1;startSize=26;horizontalStack=0;resizeParent=1;resizeLast=0;collapsible=1;marginBottom=0;rounded=0;shadow=0;strokeWidth=1;" parent="WIyWlLk6GJQsqaUBKTNV-1" vertex="1">
          <mxGeometry x="120" y="360" width="160" height="138" as="geometry">
            <mxRectangle x="130" y="380" width="160" height="26" as="alternateBounds" />
          </mxGeometry>
        </mxCell>
        <mxCell id="zkfFHV4jXpPFQw0GAbJ--7" value="Student Number" style="text;align=left;verticalAlign=top;spacingLeft=4;spacingRight=4;overflow=hidden;rotatable=0;points=[[0,0.5],[1,0.5]];portConstraint=eastwest;" parent="zkfFHV4jXpPFQw0GAbJ--6" vertex="1">
          <mxGeometry y="26" width="160" height="26" as="geometry" />
        </mxCell>
        <mxCell id="zkfFHV4jXpPFQw0GAbJ--8" value="Average Mark" style="text;align=left;verticalAlign=top;spacingLeft=4;spacingRight=4;overflow=hidden;rotatable=0;points=[[0,0.5],[1,0.5]];portConstraint=eastwest;rounded=0;shadow=0;html=0;" parent="zkfFHV4jXpPFQw0GAbJ--6" vertex="1">
          <mxGeometry y="52" width="160" height="26" as="geometry" />
        </mxCell>
        <mxCell id="zkfFHV4jXpPFQw0GAbJ--9" value="" style="line;html=1;strokeWidth=1;align=left;verticalAlign=middle;spacingTop=-1;spacingLeft=3;spacingRight=3;rotatable=0;labelPosition=right;points=[];portConstraint=eastwest;" parent="zkfFHV4jXpPFQw0GAbJ--6" vertex="1">
          <mxGeometry y="78" width="160" height="8" as="geometry" />
        </mxCell>
        <mxCell id="zkfFHV4jXpPFQw0GAbJ--10" value="Is Eligible To Enroll" style="text;align=left;verticalAlign=top;spacingLeft=4;spacingRight=4;overflow=hidden;rotatable=0;points=[[0,0.5],[1,0.5]];portConstraint=eastwest;fontStyle=4" parent="zkfFHV4jXpPFQw0GAbJ--6" vertex="1">
          <mxGeometry y="86" width="160" height="26" as="geometry" />
        </mxCell>
        <mxCell id="zkfFHV4jXpPFQw0GAbJ--11" value="Get Seminars Taken" style="text;align=left;verticalAlign=top;spacingLeft=4;spacingRight=4;overflow=hidden;rotatable=0;points=[[0,0.5],[1,0.5]];portConstraint=eastwest;" parent="zkfFHV4jXpPFQw0GAbJ--6" vertex="1">
          <mxGeometry y="112" width="160" height="26" as="geometry" />
        </mxCell>
        <mxCell id="zkfFHV4jXpPFQw0GAbJ--12" value="" style="endArrow=block;endSize=10;endFill=0;shadow=0;strokeWidth=1;rounded=0;edgeStyle=elbowEdgeStyle;elbow=vertical;" parent="WIyWlLk6GJQsqaUBKTNV-1" source="zkfFHV4jXpPFQw0GAbJ--6" target="zkfFHV4jXpPFQw0GAbJ--0" edge="1">
          <mxGeometry width="160" relative="1" as="geometry">
            <mxPoint x="200" y="203" as="sourcePoint" />
            <mxPoint x="200" y="203" as="targetPoint" />
          </mxGeometry>
        </mxCell>
        <mxCell id="zkfFHV4jXpPFQw0GAbJ--13" value="Professor" style="swimlane;fontStyle=0;align=center;verticalAlign=top;childLayout=stackLayout;horizontal=1;startSize=26;horizontalStack=0;resizeParent=1;resizeLast=0;collapsible=1;marginBottom=0;rounded=0;shadow=0;strokeWidth=1;" parent="WIyWlLk6GJQsqaUBKTNV-1" vertex="1">
          <mxGeometry x="330" y="360" width="160" height="70" as="geometry">
            <mxRectangle x="340" y="380" width="170" height="26" as="alternateBounds" />
          </mxGeometry>
        </mxCell>
        <mxCell id="zkfFHV4jXpPFQw0GAbJ--14" value="Salary" style="text;align=left;verticalAlign=top;spacingLeft=4;spacingRight=4;overflow=hidden;rotatable=0;points=[[0,0.5],[1,0.5]];portConstraint=eastwest;" parent="zkfFHV4jXpPFQw0GAbJ--13" vertex="1">
          <mxGeometry y="26" width="160" height="26" as="geometry" />
        </mxCell>
        <mxCell id="zkfFHV4jXpPFQw0GAbJ--15" value="" style="line;html=1;strokeWidth=1;align=left;verticalAlign=middle;spacingTop=-1;spacingLeft=3;spacingRight=3;rotatable=0;labelPosition=right;points=[];portConstraint=eastwest;" parent="zkfFHV4jXpPFQw0GAbJ--13" vertex="1">
          <mxGeometry y="52" width="160" height="8" as="geometry" />
        </mxCell>
        <mxCell id="zkfFHV4jXpPFQw0GAbJ--16" value="" style="endArrow=block;endSize=10;endFill=0;shadow=0;strokeWidth=1;rounded=0;edgeStyle=elbowEdgeStyle;elbow=vertical;" parent="WIyWlLk6GJQsqaUBKTNV-1" source="zkfFHV4jXpPFQw0GAbJ--13" target="zkfFHV4jXpPFQw0GAbJ--0" edge="1">
          <mxGeometry width="160" relative="1" as="geometry">
            <mxPoint x="210" y="373" as="sourcePoint" />
            <mxPoint x="310" y="271" as="targetPoint" />
          </mxGeometry>
        </mxCell>
        <mxCell id="zkfFHV4jXpPFQw0GAbJ--17" value="Address" style="swimlane;fontStyle=0;align=center;verticalAlign=top;childLayout=stackLayout;horizontal=1;startSize=26;horizontalStack=0;resizeParent=1;resizeLast=0;collapsible=1;marginBottom=0;rounded=0;shadow=0;strokeWidth=1;" parent="WIyWlLk6GJQsqaUBKTNV-1" vertex="1">
          <mxGeometry x="508" y="120" width="160" height="216" as="geometry">
            <mxRectangle x="550" y="140" width="160" height="26" as="alternateBounds" />
          </mxGeometry>
        </mxCell>
        <mxCell id="zkfFHV4jXpPFQw0GAbJ--18" value="Street" style="text;align=left;verticalAlign=top;spacingLeft=4;spacingRight=4;overflow=hidden;rotatable=0;points=[[0,0.5],[1,0.5]];portConstraint=eastwest;" parent="zkfFHV4jXpPFQw0GAbJ--17" vertex="1">
          <mxGeometry y="26" width="160" height="26" as="geometry" />
        </mxCell>
        <mxCell id="zkfFHV4jXpPFQw0GAbJ--19" value="City" style="text;align=left;verticalAlign=top;spacingLeft=4;spacingRight=4;overflow=hidden;rotatable=0;points=[[0,0.5],[1,0.5]];portConstraint=eastwest;rounded=0;shadow=0;html=0;" parent="zkfFHV4jXpPFQw0GAbJ--17" vertex="1">
          <mxGeometry y="52" width="160" height="26" as="geometry" />
        </mxCell>
        <mxCell id="zkfFHV4jXpPFQw0GAbJ--20" value="State" style="text;align=left;verticalAlign=top;spacingLeft=4;spacingRight=4;overflow=hidden;rotatable=0;points=[[0,0.5],[1,0.5]];portConstraint=eastwest;rounded=0;shadow=0;html=0;" parent="zkfFHV4jXpPFQw0GAbJ--17" vertex="1">
          <mxGeometry y="78" width="160" height="26" as="geometry" />
        </mxCell>
        <mxCell id="zkfFHV4jXpPFQw0GAbJ--21" value="Postal Code" style="text;align=left;verticalAlign=top;spacingLeft=4;spacingRight=4;overflow=hidden;rotatable=0;points=[[0,0.5],[1,0.5]];portConstraint=eastwest;rounded=0;shadow=0;html=0;" parent="zkfFHV4jXpPFQw0GAbJ--17" vertex="1">
          <mxGeometry y="104" width="160" height="26" as="geometry" />
        </mxCell>
        <mxCell id="zkfFHV4jXpPFQw0GAbJ--22" value="Country" style="text;align=left;verticalAlign=top;spacingLeft=4;spacingRight=4;overflow=hidden;rotatable=0;points=[[0,0.5],[1,0.5]];portConstraint=eastwest;rounded=0;shadow=0;html=0;" parent="zkfFHV4jXpPFQw0GAbJ--17" vertex="1">
          <mxGeometry y="130" width="160" height="26" as="geometry" />
        </mxCell>
        <mxCell id="zkfFHV4jXpPFQw0GAbJ--23" value="" style="line;html=1;strokeWidth=1;align=left;verticalAlign=middle;spacingTop=-1;spacingLeft=3;spacingRight=3;rotatable=0;labelPosition=right;points=[];portConstraint=eastwest;" parent="zkfFHV4jXpPFQw0GAbJ--17" vertex="1">
          <mxGeometry y="156" width="160" height="8" as="geometry" />
        </mxCell>
        <mxCell id="zkfFHV4jXpPFQw0GAbJ--24" value="Validate" style="text;align=left;verticalAlign=top;spacingLeft=4;spacingRight=4;overflow=hidden;rotatable=0;points=[[0,0.5],[1,0.5]];portConstraint=eastwest;" parent="zkfFHV4jXpPFQw0GAbJ--17" vertex="1">
          <mxGeometry y="164" width="160" height="26" as="geometry" />
        </mxCell>
        <mxCell id="zkfFHV4jXpPFQw0GAbJ--25" value="Output As Label" style="text;align=left;verticalAlign=top;spacingLeft=4;spacingRight=4;overflow=hidden;rotatable=0;points=[[0,0.5],[1,0.5]];portConstraint=eastwest;" parent="zkfFHV4jXpPFQw0GAbJ--17" vertex="1">
          <mxGeometry y="190" width="160" height="26" as="geometry" />
        </mxCell>
        <mxCell id="zkfFHV4jXpPFQw0GAbJ--26" value="" style="endArrow=open;shadow=0;strokeWidth=1;rounded=0;endFill=1;edgeStyle=elbowEdgeStyle;elbow=vertical;" parent="WIyWlLk6GJQsqaUBKTNV-1" source="zkfFHV4jXpPFQw0GAbJ--0" target="zkfFHV4jXpPFQw0GAbJ--17" edge="1">
          <mxGeometry x="0.5" y="41" relative="1" as="geometry">
            <mxPoint x="380" y="192" as="sourcePoint" />
            <mxPoint x="540" y="192" as="targetPoint" />
            <mxPoint x="-40" y="32" as="offset" />
          </mxGeometry>
        </mxCell>
        <mxCell id="zkfFHV4jXpPFQw0GAbJ--27" value="0..1" style="resizable=0;align=left;verticalAlign=bottom;labelBackgroundColor=none;fontSize=12;" parent="zkfFHV4jXpPFQw0GAbJ--26" connectable="0" vertex="1">
          <mxGeometry x="-1" relative="1" as="geometry">
            <mxPoint y="4" as="offset" />
          </mxGeometry>
        </mxCell>
        <mxCell id="zkfFHV4jXpPFQw0GAbJ--28" value="1" style="resizable=0;align=right;verticalAlign=bottom;labelBackgroundColor=none;fontSize=12;" parent="zkfFHV4jXpPFQw0GAbJ--26" connectable="0" vertex="1">
          <mxGeometry x="1" relative="1" as="geometry">
            <mxPoint x="-7" y="4" as="offset" />
          </mxGeometry>
        </mxCell>
        <mxCell id="zkfFHV4jXpPFQw0GAbJ--29" value="lives at" style="text;html=1;resizable=0;points=[];;align=center;verticalAlign=middle;labelBackgroundColor=none;rounded=0;shadow=0;strokeWidth=1;fontSize=12;" parent="zkfFHV4jXpPFQw0GAbJ--26" vertex="1" connectable="0">
          <mxGeometry x="0.5" y="49" relative="1" as="geometry">
            <mxPoint x="-38" y="40" as="offset" />
          </mxGeometry>
        </mxCell>
        <mxCell id="Zyp3x8G9PnxRjoicoujC-3" value="" style="shape=image;verticalLabelPosition=bottom;labelBackgroundColor=default;verticalAlign=top;aspect=fixed;imageAspect=0;image=data:image/png,iVBORw0KGgoAAAANSUhEUgAAAgQAAACTCAYAAADx/gFEAAAAAXNSR0IArs4c6QAAAARnQU1BAACxjwv8YQUAAAAJcEhZcwAADsMAAA7DAcdvqGQAADaOSURBVHhe7Z0LWFVV3v+/XAQBuSMISN5CJSGNvPRkKngpKst5u030+jZjY9OI2UXNmd6sprKZycoulk1Tk1Njf2umizXa0EWhGmccM8MBXxUS8wIIwpGLgCDIf6+11z5n7X32OZzD9QC/z/Psh7MvZ++19t6c33Wtn9cFF1zQBoIgCIIgBjTe4i9BEARBEAMYUggIgiAIgiCFgCAIgiAIUgg8kGjMW7UBf9n2Gbbv2IoNd1wgthMEQRBE99EhhWDo//wdl/3kF/AS673HYiQ+nI2xMwaJdTe5uB57Pj2Go8bl4yo8P0HZH9+E7A+M+0vw9bJW9fvdQPgtv8LSq8YjKsDXA+4vQRAEMVAY2B6C/wRh8lUXYMRV8cgpB87siVU+K+vXR+K+/eIY+ODY1nh1u7LM+XMQIueXYP+T58T+ruWyS0chxKsF5f9aj0VXz0fWG8fEHoIgCILoPihk4CbfbwrDktwADEmpVb0I3YIFBz/4EEebxCpBEARBdDN28xAMue5tJF8SKdYYh1H85FJUtM5EwrIHER9u5sg+jdJ3F+LYoVbgwkdw8W1JqFbWG6duxZhR6vGN+9Zi30c7lE/iPLUf4d9v/h7qxdVtEceeFscILl+PaXMTJde5aMsodo3LESi26qjejf3rH0GdW7MrtOJPb5VgyvFYTHhICj+wkMH6SgTlDMOM9T5iowILNTxdjcat2vbzWP38SdyZ1KLuZ9SG47Gbg/GGWHWVq5/6EA9MacKXD9yKx74VGwmCIAiim9ErBFwAe+MIVwDENhNYDsEYb1mgS3CFQBXWViWAnzcKZVxpmO6SQqApJpac61D4tSP3PMshuAleuc6OcQU3FQK+vRwJB9TjZz14Cm+lDu6QAiDjN+I2/GbdHUgNLkX2ituxNl/sIAiCIIhuxiRkMAZhl3cwSU/C5hFQ+Oc+WNrCMTja1QjFYsROiuTn6Jyg70FCzmD+1eKz20zAvX/8O7I3LkZq2HlUH/wSHx4QuwiCIAiiB9BL6H8uw7+/KEJ4+t9w2SPZfOloBn+j5WvxifE6ip7IcFu468/hQUS2ICrIB5aT6u378rdDcXuuLy69TxuJUIYPOqwcEARBEETPY2+yM6Xg8QzsYotQDjo8rK+fMuvaBgxtGoxvd9jCCEwp0EYiqMqBO0rBfrzws6uRsegP2GMBwibMwY9TxC6CIAiC6AGc+/C5q198lmisVqTWiBQMlcLqrvMVzlYrf0LjMIRnC5olK76O6h/aEJH+Fi4Y5+wihcq5lONG/6zHxuzzfIG0Zhz7PEwamqjny22BOCU+u0Pz0XeQU1wPeHnDx9XoCkEQBEF0AbqkQvsRBoZcACtGIW4cZXA5zrqQDBgpvs6uURryAOJq9aMMHI94EKsMKYmR484oAz5aoApDxaqVpiB8+GAk7qtWkweTgsR2hrbPqgyYjDDgcxcYEhFdhEYZEARBEL0BlT/2MFSFIBBl/3gRKx7fhpOynkEQBEEQ3QQ5pj2MQ0cq0IhBiL1iBf7fZ1TLgCAIgugZSCHwMIrfWIfNu0+g7hw5bgiCIIieg0IGBEEQBEGQh4AgCIIgCFIICIIgCIJQIIWAIAiCIAhSCAiCIAiCcKAQ+Pv7IzU1VawRBEEQBNHfMVUIhg4dilGjRok1giAIgiD6O6bDDocPH45p06bh/fffF1uI9mnD0qdOYtWkFpTviMXUp3zFdoLo/8xZdiUWJvuLNaAk9wus3two1jpJ2iRsyExAgFjt1LnHJmLNPeMRf/Y4Nj2eh+21YrtHEYrbH52O9Dgx9XmdJ7eV6E94tEIw5v5K7MhoEGtAS1kUlv40ENli3SXiGvDPjZWIF6toCcDnjw3F4t1sRRXiy2NC3T+vHZ1XCCJ/VIsv72zCLmv7CMLzScqcjuVpwNeP7sRbJ8VGBXV7BMplAa4J5IqDeOjxIpSqW10kFsufm4yI3eYKAVdKwo84P2+fUAhs8Ht4aT3e6UBbtfuv/yVqRP7mL7Eu95ydoqViQY7hOdodVyI/O4PyIqEpbkZlkaM7B+EpmIYMKioqkJeXJ9Z6g/N4+fVj2DG3DZ8/rJYUZsvULa1Y8UvXJ/dnCsXRjVXw3RFnPceI20IRsbABGeKYrsMLL/8yVrlGAnkHiAFEKKaMDUVjQTG2yEJEUHf6DGIShyNOrCddGo3AM2fQayU6Couw+u6/YdHKAWJxM+/CA0p/79KWL1RlwApTELKt+zcVBCF95STMCVH3MqXitcwofG89Zg/yw8fjyUcSxTOtwVuPfcL3rc21oEW6nk5pYwqAuIb1HM/YrkN4BqYKQXNzMw4fPizWep4x91swP1a25FWqtgRjnqvCNq4Bf85otLfWa/xwwz2d9QYQBOESJRU4HB6NucPYClMeWvHD9818F+F5bM+vQGNwEOJ5+dhYXD2VeXh2SkpEGda9chAl0SNwa9ogsc1dxDkGJyD9Wr1/guhdPHDY4Xksn9CAllNBeM+J25y51wu2ncLrU1VvwtFP2XIcu4UHYcyPGxDfMhj/yemMtc7CAGU4+nENHhBbtG2H/2TzMnBPBL8+W0rwya1ih4DvV87xa9Zmk+O07+9dUo1g30bMe0I75hgKn6UfT8IDYW7kV6/DxldncndxcPJkvMDXlUVYfnFRQfCFBQXFQRibrvzwj43G2HNV2FuvfD8kCEnKMdwCfXU6bucKgwrf5rL1yFzW1/Drcrd0vGJ5au14dS6WW4UWCzdo25XFauHqYe5t6zFssWuH4TzyNVg44iWlLwu0e2P4zPuofn9NZrS13Xxx0B6nWJ9BJ86hQ7mXs+IQoChxXzBvT1oMLgxshKXM4M8pPAPLuQCMTIlChw38wgoUnmpFvOQ9Ylyx5Bls2LABq2/tXE+IjmGqEPj4+CAyMlKs9TChLRiuvGWtVb7tW/FceJZgSpEaEpidHYCYmacVJaENGcMUjbbVD4d6IBZ/+LkoNRyxKAolYpsd/jVYdEcb3uShiwSszfPGhNtURUP7fuorYahjOQ5SmGTsCj/1+wThSeTmIYu7f79CTmkr6gr24F7NJWxwx3+lWJ0Ryg//FZdGo+XICVSJ7V2DzWW9qaDJ4JqW3eOKVXq/up0fZwJTRG4dUaF3sev6wpSPEah8yrZ/U4E3UjKnSgpNBNJnAO8/sAf5Dcrna4Kw61H1M1eKBPFp0zDZ8p16z55lFvd4ZGW6YS3zuL7syleeg1ei5Mp3lQCl/RlCqVCUu+BSbHpeju03ovKgHGJgNKCyulV87ig1KLEoioZQDAnPwFQhiI2NRVpamljrZVhSoNWqtnkAVLx0IYHD7waixLcZcaP5qoTsRTims+57DCbo14Tiab7iheyTHXW3EUQfI7cc34ePwA0TW1Gc04gDZfUwihiPITgKE1Md/W8y5WOXLuGOu9jFZ42Sbw9ZlYiS3L36BD0BU6BWry8DP6ywCDmHmuysZceolnxLwX68blV4lLZ9WYrGeC08IwhOwMKnJS+CwRtjl0NwNFo53nhMz/GPV1YiKysLa96hdMPewPNCBjW+OKH8l/hEtqhCuzQQlzNr+ZZhyKvhR0h4o/KoFBLgx8bjmneEwPVpxripbIc3li7WLHMSxATR/YQiPkL73yzDvmJvhDdUqa5ohjVO7Tkc2Mxi5Y1IslrMcshBRQ1xSALWLku/E7hpLevCNI7aYpdUaBhBYGD7+nyDNyMAUeONv5mBiArzQW1ltarQdAjxftTW40DHT0J0MR6YQ+CNdfsD4Tu0HjdxYd4xVG/BWVyc3mv5zARBCLav/wyL+sAwM6YU3CmE51quHMyyKQVpk7AsLUA5xmZRL9p83M5D0GHcFI66MI11cS7w3YJ5dhoCEBFryMNylFvgDiyfZKgPSopO0NBDD8JUIbBYLKisrBRrPc/hN0KQV9+IeavlZD43KQ3A23m+iJldbpfk5zpGT4M210D3ODyrdvuilpQYoh/RnhWphg9sViizwO3HzrtGaWU9Wowu805w4NsKlDv9V4/F8gVd4CFQFI0bk88j/6sfXBSONfimsAYByROwuMOZ/ubMWZaClNbjyNnG1Jwy/H23BTFp7Jlo11H7rA9XuIk0F8UGw3wSWlLhU0tnIVRsI3oO04mJPAMW9z+B+QlilWPLGeCT+Cypw7GNLEQgdptgnNyIYZvgyJGA98F+63n17WDffXJfAx6aGCjOYdZOlaaCYTwpkLeBzakgDaPk29IH4aXrtbwCFWN7tXMQhGeiTkzDEuSsMXEOy6Z3MIkQT4hjyXaqNaubuIa5uL8AbpwLvC8m4zGd2IZhN7mN2hbbJDntTcLDsE3EY3Yd/ayIJuf//AQi0iJRuEY5R4gq6LCTfSdM6r/95xRduMQwGZAmMO1kvdQfBVPlSbonfL+zSY3M7gm7/4bjjdfR5T/Y3RMbziYmcjjb5BVL8MxtKQis2493f/MyvrQLExPdiQcrBARBEP0NVVEaWSwLVcLGFVjyzG1IaSWFoDfwwBwCgiAIYiBy4S2zMD4QKP3uQ1IGegFThSA8PBw33HCDWCMIgiCI7oR5BjZgeVoICt99kIYd9hJU7ZAgCIIgCAoZEARBEAThQCGoq6vDuXMdHFJCEARBEESfg0YZEARBEARBIQOCIAiCIEghIAiCIAhCwVQhCA4ORkZGj9cD7KOw2Q7LeqeCIq8EWeLG1Mxq1Ud32spmTrSvMkm4j/qeHP3Ylem4xbF96L6z2eisRXaUZY07pXyJboBNgHQdXlwWi/brJanH2ldCJAYaHj3s0DiNr23KYRcIbcZHr53EJN2E2PpyyV2DOv3x8phQ19vWVTCFYONpVMvTN/NtlYgXq2gKlaZHVqdZzvB1/T6qz6CxG+4bw4V757Q/fQm1r6uSAl1ovzh2Uks33feuRZ3aFvhann6Xo87Kp5+mV55+12y/DesUuQ6mHbZOf2s61a9+ml+O8TiTaXqN0+w6nGLX43FnRkTtORimUCYGHB4aMlAtWT7//8OsbLG6TN3SihVuWkysFoD2/dRXQhHYqWJHng2r71CwsQq+O+JEn4dja0UN7nbJKjXn8HNRynkSekUodUd/+gZeePmXsb12390jFFPGhqKxoBhbHAgSJlS1anybCryRkjlVWKJlWHe/VqVvD/IV3V8+9h6dIGPCSjtWXYyCWv6uWqlQu44CUypWqHUG1GO+Qk5dHBY+MglzuAnN5uS/BgtHVNjKBW8+joi0uQPA26E9B1IGBjoeqRCMud+C+bEBumJAjKotwZjXiR/IqpzBOFxzHlEj+qP7+zwen18Nv4IYSYh4Y+mKYcg7W4ub+5zLv7/1h2Bsz69QbHezGvtdi1qpULuOIuxnxaGlYA/WWpWIGrz12HfI90lA+rWKwE8bhcviapDzjOQxyM3D+lwLYi4dJ5QGgujfmCoEJ06c6MVwwXksn9CAllNBeE9SBoxw63HbKbw+VfUmHP2ULc5jrmPuqMWkoMH4T46kVLDQwl+077PFLCYvX0NdCp9tFvvsUePuynGyJcvj/dI5dFauev7CZ5tE7NjsGIahHbIrPe4sLknwQnWF4ZHW+OJEbRsik5qteQOtVT4Y4+g6dveDLSb31Wl/BHbn0s6j9eM4rzTpG1uJV63HiPvvQn/uUO6zeT6Edj+bbe/J1XJ77fvDj7PuN+ZZqDF9vk3uN3//xCEMk3tn9p5Eae+HyTms7w5f7N9FV/vT7TCLm+cLzOSV7oKTJ+MFLYfgGc3qNqIK5oC6Suzb273znMy5ahTiz4rriNr79qWYG1BZ3Yr4xOG4MSVaaVc9SvSFUdXyzMFRmJiagOXPzZXKAEvwe6HG33kuxSOJuCJzOl7T7odJbN55zoUa02fbWDjGeh7lvHHiCI71GWiLWfsCcMuj19iO0Z1D9YpY95k8N1f7A0zBnb/bgA0bfo2FY8Qmos/heR6C0BYMV17K1irf9mPcvo2Y90QJphSpLuXZ2QGImXla9wPrn3zS+gO7I6MJ+/8sex0UwbG2Bqee0cISCVib540J/yP9SPMf+ROYHx2Kl/gx6mJeklgVRNZQhxYr5nFw2fWtXOdAg53r2z+5HPf6RqrH3MIs4RrcaRUo7Nxq/P8urR2LolAi9qp4o/Ko0YPihf+r0v9IsOuwuD0/j/E6NX5YcIs4v7bfWGTElf6wY/5yEskNUnutLnDF0l8svpc3iOeG2I6Ry1k778+ZI35ojDiHFL4mwd8hSZlg78nd9fg/EX4yvidMyKqltLU2DEd2SyVeNigbXHF5TTvPcGwta0R6lnaM8nyePYmk47YQFVvs3hP/Gtw0MVD0Vz3HzB/blAY1RKPss3u2Eqw/97HcEfUaZu99t6NYz1ma6720lcf77xXu+kUr9XH5+LS5QpAoykNbER4y7O8qbNe5DguT6/XWPhphKTMqTTUosUjbautxwNiu0npYuO7ClAc/RMQa30cgKTYIg2RlIn48fpZYgUet9ycU6T+3CWKepyCHJp49CEy3D02w/qzSzqMcUxI9HlnaMSwf4qYofL85Wz0HX77Q50woBCdPwMjCHOt1SqJH4Far0sC8JJ/wfWtzLXCoUrL+sDLKvL32/SH6D56nEBjRWaJGS0ifJHj43UCU+DYjbjRf5ehzCIJxwSL5HIpguktWELzwzr+CUCfWGKpXIQCfr3GeCKZauUJgXyufU7Eu761BTFkkHrG6vr3w8guhKPE/g3TJAmSC8R5NgHBLWP3IiPzRGcyKDUDOhs4nLuqSMxUFYPm/AuGf2Ghv4ZviSn/UY+KbQvH77k609GnGOCYI+XsiW9SyMuGjUwSrFUXC9oy10MRQnSLyyNYwNA6tx02ykG2Rw1jeWLc/EL4GhaTd+6i7J6py4xPZYuLlcIbSHymR9PAbIcirP4uL0x3+pPcqWmx/U0GT2NIRIpD+mGahssXeGtbnEAAzHnNg0XeCkKgwnrWvWc5WoSgrEyxZ8fkiqOV5DEqHIsjTx51H/tb9NmWlsAg5h5q4p0InZEsO4qHHxXkKK1B4qtV6fZUAjEyJcjqKgClq1jBJ4RlFuQkwVWqcoku+VJSIL0vRGB+NuTovwTd47VdZyMr6NTYdFpuIPoepQuDv74/U1FSx1sMIQWj9kSwNxOVMoJtZqroffQV+rGxh6mE5CK/k+erc53oX7THsXVKNYLHPSqsfDlkFvDktZRH49riiGBiFiEDvFlcW2d3vAmGjmhHcbjvM8iPacFHkufY9LppgdRFX+tNiGYR88bljOO/PX3b7olYogGN+3Iig0964cIpibQe1YGiQH0qLxVdcQPYkscWV94Bb89YRA8zrIZIetfOYhVG6jTaERZ8Xnz2T7Z8eMVio7mBMKrS3hmUObC7A16V+ksA0E4ShiI/wRd3pM+CqSkgQkozSNS4IEYMaUXmwigv24PAhGIJYTIw+h9PRqlCMiwpCo3KOM+Ir7ROAlMwMSblhHg3byAYN1i7bOVVr3ppoqSgRq188iNpxtlCNa0MMu4ruzwMheh5ThWDo0KEYNWqUWOtphOXlQLB2JcxV/BELI1hdxcyLEKbzELiON/7ABEJZI+atthcEere4tjhWXoxwq9aZ0C4djO+OmwgFR7F4Iy4oPTKd7U+7uNKfel+c4krieSwffx7fvBmKSsVC//XUFoS42R/Zk2RddJ4eV9BCIWzp6RERLjzj3oZbwt7tWrVdjql1rSDlFmxlyY7BQYg3DIGcI+UWlFbWq271tBjEVBzEjkNBGJsezZUK+/wEZ7AhkbKrXyyaN8BVmFJwt/jus6pysKbHlAKmJHVvHgjR83jkL4jqAjUXrJ0h8kd1WDLpPA5lO3Bjhzbjjdv0liEPQ/jX4BcuTeajZcHLgkANQzTGVuHxTiR+VXFrWHIL8zi+bJWrbu7m5HIpJHIeLz9eaXDvG1DO82c2z8DOIKchERuu9Ec7phIvOkm+ZMdlnxzkQPlzoT/cm3QeUUn1uNg/CO/9PQBvH2jC9EsU/cZl74SqgPonn+ri4ajqebufNiz93ypMGhyCvzp6xh4EG2XgmzwBi7vYlW8kKTMZM+JqsOevzKJW3dy+yZOxyhqnD8XtmYmIVwT7BuZSzz2CXSw2vlJKrEubhBuTbe59nmAYEoQFqSEoz6/E1k+PAKNioLzpJvkJDuDKiR9S5k/o2pELQunpfmKxfEECWuyGmWpJhU/j3nlRYhvR1/BMk4Inthncr38xTjLkGrIreC9PHLNZsVVbhuDL462YsEi7xikM2m5I5mJhiFuGoSBQ7yJ3OMqAtf0+5RyKEnG3yCCv2hKCWXwOhFLr9/nijvWotOM6+Rwsue23+jCK/XWMkxCpMWudu59PbOTeeHdX+sOOSV4UhUqdK94+G/7wcxGqV+UJ7RhbHoBr/fFFzGW1qONKHlNEBiP2smoEuJKUKmCu/9nZ/rb3QCxuzT5pMsKAJ5e2k3uiR01K5d/nyp7t3dS/b9I7q9xTniDaVyZr4oK3GwSigpxUuMo4URJLghTzCqjHiARHq1XOXPI71bkJnhau/EyWtCdNbsQSDAcr/ytDyvAO28aE8CBlPa7ZDWvZ5DpicWu+A7sRBmp/ftfuJEQSLDHxJfX7q9Ii4BucINpkyL2wbmfLZETs/sIwRwTjG+QdZluCMPyiS0AqQd/EdKZCPz8/JCQk4PBhyg4Z8HBPBBtR4Pkz5g0EbCMiujA8QxAOsI6IMMzoaMqUO/G7RZfA59CHeOqFz1EpNhN9B1MPQXNzMykDAxQWVvncasWL0QIthrkbCIIgdIzAf82+CCGowL6tpAz0VTw8C4noaVgYZUvEKas7elWyr92MkQRBEFaYZ2DDLzEv6gd8+AgNO+zLmIYMfHx8EBYWhqqqKrGFIAiCIIj+jKmHIDY2FmlpaWKNIAiCIIj+DoUMCIIgCIIghYAgCIIgCAcKgcViQWUl5YkSBEEQxEDBNKmQIAiCIIiBBYUMCIIgCIIgD0HX0YalT53EqkktupLMBDEQ4DPaSRX7WCni1VrZXVdg0+jeMx7xZ+VSu11JLJY/NxkpWnkJubRwX0S7X2KGYVbmeLU70xYThAmmCkF4eDjS09PxwQcfiC29AytNvCOjQaypFfZs89i7iLEIkK6mvSrE2Vzwbp/Xjs4rBHxa2jubsIsmAiL6EEmZ07HcWDvASihuf3Q60uN8xLqCrr6+oNsVAhtceQk/0kGFwKBYMHpVuVDv72TLdx1QCEyeDUN6PkZFj2PSX6cKoUF5scFKWivvTIjZflYRUqojQfQIpgrB8OHDMW3aNLz//vtiS0/DirycwPxYWXir0+q+My4A81wUtqpC0agX0KHN+OCJFvzhHqYAdKVC0HlIISD6Hs4EkhCepz3LGu+wQiAEW8ghT7LGO68QOPsuv1e6WgbqMx1ZrN0DoVQEl9qOYYWXMhNgsfMSObgev68jYHnPpgCoSmYEyt31NBGdwiNzCMbcb7FTBhhVW4JdVgasZX2N1nqNH27gygBBEN1KWgwuDFQsva9+8BhloDMkXRqNmEEWUVJ5oFKGfcVNCA4fgiFsNW0ULourQc4zklcnNw/rcy2IuXRchytaHti8E+8UNCG+E+cg3MdUIairq8O5c73lqjmP5RMa0HIqCO85sZKZNV3AywtLJWOl8rpjftzQBUV5mAehzFCmWN0ml8Zlngj1+myxle/V4PuVc/yatdnkOO37e5dUI9hXLgXspMwyQfQm1vK7M7nLOTh5Ml7QSvE+M0n9EWflgs8FIGXmSMSp3zKBWZxaaV1leSTRcCyzKq/Bi8tiMV+xVq3HadewYjiPw+Ocwyxi+ftySeIDZfU4hwhMvjkWTk9pLE0stYFZvq8pfbxRu47hM+87//503H6ZYjmL8sRscas8ssBZfzqEYs2nj/NHSdEJruTNSYlGQF09SmyRXQ6/V8FRmJhqFydwme35FWi0O0ca7l63ARs2/C9uphrLXY6pQlBTU4OPP/5YrPUwoS0YrvzztLpSz54LzxJMKYrDiKsuwOzsAMTMPK0oCW3IGKYoNK1+ONQDrndWT59df8SiKJSIbXb412DRHW14kx13VQLW5nljwm2qoqF9P/WVMNSxHIeH2THqMnaFn/p9gvAkFCsw666/YdFdXyGntJUntd3L15VlpbAWC4uw+r3jaIwfjyeZQDIVzmVYd7/6vU2KRegIpnBciXxxjT3I90nAgp9ogpkpDZeooQnRBn4us1wFJ1jd4w+Ifjx7EJg+1yZEheUboCk/dsqLAnN/X16PNaIdWlsX3icdq9yPWawvm9V7M5+FL/jnaMwdJo5RFI/0RcyNns3Ps5ZZ3GmpuN26v33a7Y+rBCvtf1ooFSvUkMla2Y1fW48DxnvMlUHxuaMIhTIitjNGHeEOnj/skCUFWq1qmwdAxUsXEjj8biBKfJsRN5qvSshehGM6677HYIJ+TSie5iteyD7Zcc2ZIPoMmuLABJ4mWMwEaXuUHMTvrHHnBlRWt/JPKoGICvOxWq0M1boMQryc/OcMbvmeR/7W/TYFQlFocg41IT5xuLW9zJV9pxDQLULRYd4Lq57DlKDfyLkJqotdjxx2sCDnD2a5DPqkugObi3GgIQJj010U5i72h6Hz7pgpOkyx0pQKRcH5YbRyfEeeYZeQi5eWZyEr6zf4K82d1+V4nkJQ44sTygvsE9miCu3SQFzOrOVbhiGvhh8h4Y3Ko5L2yI+NxzXvCIHr04xxU9kObyxdrFnmJIgJoseRFQNFkGZ11nWtQ1UQZEHnyJXtnACkZGbYBKOy2GXYC2TFICB5Ahanab8raojDlXN0hJCoMOfhCh2u9Ufn3WGL02TLMqz7yODNCAlCkrFRcUGIGNSIyoOdcBOIc1jKZCOQ6E5MFYLg4GBkZPS4DS3wxrr9gfAdWo+buDDvGKq34CwuTqeXiSA8htxyfK8IafcEm4tooQkm+HSZ8a7CrHLVRa9bnAjIA99WoFxya89ZNk3NuLda1M5DIe5SW1ntRkKj+/1xF0eemI4pZHrUc1Ri397eymcbeJgqBKGhoQgKChJrPc/hN0KQV9+IeavlZD43KQ3A23m+iJldbpfk5zpGT4M210D3vKBVu31RS0oM0Y9JyhyNpMBG/JBf2XWZ+lqm+6OS0NPyGFylsAKFp/yQMn+Ce0mIV41C/CALCnMcDI1Lm4Qbu8BDMGdZClJajyNnm4tD8DrYn/aJxfIFCWgpKMYWNudE7hHsKg1F+kopP4T32RCucBOe/2B6Di2p8HdYMr33ZFR/xUPnIWCIuQgSxCrHljPAx+wvqcOxjSxEIHabYJzciGGb4MiRgPfBfut59e1g331yXwMemhgozmHWTpWmgmE8KZC3YW6bbhgl35Y+CC9dr+UVqBjbq52DIDwTB2PLFbSx5PqUMDEZjTaBEcuoz0yAfQBBO049f3pbkTRvgP01VQFiFLxSHL7d67DP4lqGiXq0SXZMr2FMXORj6qVJdpT9n+UHYfaICjyqtD9UnsRpPGtTEHaZfja01TAZkPm9VdC1x3l/nD07DbM+28+KaLyOPv/B7p5YcTIxkfG+SqTdvQ63XDQYtflv44lXdqJebCc6jwcrBARBEO3jaKZEa5a926GDXoYrL1H4nmbqMyftbqy75SI0k0LQ5ZiGDE6cOEHKAEEQfZhYTBytWLZmQ+KIPsw4ZM4Yi8E4gW//SspAV0PFjQiC6OOYu8b7bMEf8hCYIzwDg2vz8fYTr2AnaQNdDikEBEEQBEGYhwz8/f2Rmpoq1giCIAiC6O+YKgRDhw7FqFGjxBpBEARBEP0dr/T0dLuQQVhYGEaOHIm8vDyxhSAIgiCI/ozXlVdeaacQhISEICEhAfv37xdbCIIgCILoz3ilpqbaKQS+vr6IiYlBSYnD2n0EQRAEQfQjaJQBQRAEQRCkEHQd2jTILbqSzAQxEDBOcWubHtdTiMXy5yYjRSvCY5gKuD/An0H4kS7tV5fP9mgytbPx3J7/LvVfPFohMM7rb6tB4AZxDfjnxkrEi1W0BEg1BVQhvjwm1P3z2tF5hYDXZ7izCbukmgcE4ek4mjpYm2+/XP5B1wRChSSQTea6d3u+fDfoDsGpYVpjoIeUD89XCFSlbGSx4wmjHL1LXYVR2dDQ3rd4s+fnpK5Cf8N02CGrZXDjjTeKtd6AFQw6phYEevgCjLhKXaZuacWKX7peCZApFEc3VsF3R5z1HCNuC0XEwgZ0fXFnL7z8y1jlGgnkHSAGEKGYMjYUjVr1OwN1p88gJnE44sR60qXRCDxzBtb/YjYr34rxwM4vdCV675EFBlMYXpqpFjiyHvMNKlPHd3Elvy6CCRCt/PGzB1ESPR6/Whbb9eWe+xppMbgw0II9f3U0e6Tzd6kr2L7+M/W5bD6uqJSsuJL6nHTvm/z87voKOXVxWPj0dNw+TOzvx5gqBL3NmPstmB8rW/IqVVuCMc9VYRvXgD9nNNpb6zV+uOGeznoDCIJwiZIKHA6Pxlz+Y8p+8Fvxw/fNfBdDrXnvvKwvLzF8VvmRfl62fGvw1rp8z7faeBniVgSHD8EQsYnoSyjv2WPfIb8hApNv7v9KnWnIoHerHarlhDN8nYcHbO71SDT9XCs/bCuPbFZy2J72QgYiDJAUKJUptv+OPrQhl05W4fvTB2HjG164aUk1gvlW23HG0IgMlT8mPBKH5YQVhIsVP7kSC5CPz5CCyyq/xupvh2PNTUD2kWj85NJ6vKMcU3qtSVhBh+pmjtjdXhzZkCOg4Cj27Ni1bl8TQR+6sLXlbaTaXMtSSIC7vEXfuLIi7pPF0Baj61rXVv6dIOzaWIGxC22hFLv+mD0DQ3jC6XVc6I92r/5YpDwzqytdLhltFgaQn5mfaZ0JDd6esnHtvkuq4udKmeURsLz3JfalpFv7bVrTQrvHZmEu+fkJ+H0whE58rl+J9Rmj0XZ4G5Y+u03d2Mcx9RDU1NSgvr6XKkeEtmC4ooa1Vvm2b8X7NmLeEyWYUqSGBGZnByBm5mm8PrUNGcOUl6TVD4d6IBZ/+LkoNRyxKAoOB2r612DRHW14k4cuErA2zxsTbqvBA8ou7fupr4ShjuU4SGESUgYIjyQ3D1maS7W0lf/o3svXlWWl/sf0q/wKRCQOxxWXRqPlyAlUie2MA5t34p2CJsSnzcXGV6/Di0bX+tghiBjUCEuZs1ChTShZ27D5OCKUc67JNBUzJghhI4clnj2I2nGTscbQJtbWVYkVeFQcw0ICWfJ1ghOw8OnreH828iJF2fbKABMuUlgB041tjUD6omgUrlGPWZtrQUxaqs1tzQWaem5+DmXZpNxHGdeu40J/4sfjZ0xI8vOw5x2K9J8nWsNAzmEW9ifq9Q1uerbw++LSu2TyfDZX4sLMWYoiIyWfKGpFSmYGV0T5OZRr+iZPwGLdMe5TWlmPluAgxEsKZ3/EVCGoq6tDdraHONVZUuCnx3CUL8exW5dDYPMIMA6/G4gS32bEjearEmpOgnqOYzj8p+7IIWgHJujXaF4GL2Sf7NwLShB9htxyfB8+AjdMbEVxTiMOlNVDTgXU4rpMoAUnT8YLiiB1XZAzq240koyxaUXIvM8UDSl/wSlpo3BZXDPyv/rB5jUoLMLbOy0IGBGDKbJGIFvhIiQQEhVmUxq0GDQTrsacR8WKTR93Hvlb99uUJuU6OYeMbWXW726r9aq/Z4pwnBWHloL9eN1RUqXL11FwpT9Wy1gR8F+WojFeCwP1EPz51CDnDzbvB3KPYFepH0amROkUNp1HgL17DQGIiJXCxl1E68fPICsrq994Bxiel0NQ44sTypP0iWxRhXZpIC5n1vItw5BXw4+Q8EblUelB82OZG14IXJ9mjJvKdnhj6WLNMidBTBDdTyjiI7T/zTLsK/ZGeEMVvtDcsybWlqwYxMvWsGL1tfuDXlePErOoW0gQkmRp4ZRGVB40EbCGtrJEyTPis2YB65LSNLgA9kbKzJEGpUS1YrkHQSxmme+OCURUmA9qK6vtr6nDteu43B8dAYga39O/pRFIf8zWl42vzjQNRejvSxnW3S88EZ0gLioIvo7esX6EByYVemPd/kD4Dq3HTVyYdwzVW3AWF6e7PiqBIIjugQt7KbbtjO35FYpoFgJHWKwuW/pGautxwLlka59OCILtnx5BSbTRmmbWv83Vb11cvD9AAyqrDVa8KZ29jjMcKE/dij7coC3tKy+dJRYTR/uj7mg5vuneC/U6pgpBaGgorr/+erHW8xx+IwR59Y2Yt1qNsXeI0gC8neeLmNnl+ORWsc1tjJ4Gba6B7vlHqNrti1pSYoh+RPtWrBHVHR5QV4l9e9n/meaiHo8nH5Hj1spxy1P4sMMD31agfHACFvxEivWnTcKNyef1IQBncNeyYoHKsfGxifjv6REo//aQLifCLbhCI8Xc+bofUuZP6MSQyRqUWFoQLIUyjMmDXXMdM2KxfEECWqxDA1XlxDaKQs3nkJM7uwSz59MjiP60HsdHb+oVD5ZUuGHDBry85qe4WGzr63jgKAMNdbSBOnpAw5YzwEcZLKnDMUNGvxGzDH7bBEeOBLw8UkDfDvbdJ/c14KGJgeIcZu1U0UYImI140EYe2EYvqBjbS6MMCM9GTfaabPnOkMktZ5ob3LXWDO8C4C6TDHRDpjyHZ5DLkxeZZZg72W+Wkc+xz5h3PFJB3d/uxDrGLHVxbdtIA5EgZ+i39VrWhEFj++WseP05WNz8zcrR+AVLDrTeu3au42p/DBP16O+JguHel+T+G4VjJ2NsYY7+OLs+GHH0LmnYPx/dcxbtYHNa6K4rYac4CbS8A7OJiXQ5CTI+12Pl+gyMbrNg96ur8af/iO19GA9WCAiCIAjCU/HB9SvXI2NU/1EITEMGbMhhWxuVOCAIgiAIM7wv+SmmjQbaiv/VL5QBBhU3IgiCIAiXEZ6B0W2w7H4Vq/uLNqDgNWPGDFIICIIgCGKA43XllVeSQkAQBEEQAxyvadOm2SkE/v7+SExMREFBgdhCEARBEER/hkYZEARBEAThiTMVEgRBEATR05BCQBAEQRCEecjAx8cHYWFhqKqSC5X2AoMXYNSSJYgJLMOxTYtQelRsJwjCozDOAGc3m12vY5jlzmw2RKKbMMyYqKue2L/RZnpsdDTbYWcxzMDZ2f87z56HoAsUgkFzXsOlk2tQ+NRKWMQ2giC6DvVHD/jaMCWto2liOe4KhXanvXUd3q7wI3qFQPywtuh+uIUS0dp3BZj9M5Cnau55TKd27iLMplnuDuXDnet0u0JgRX1XTacKdwPPDhmc/QhHnsvArifJO0AQnkkopowNVX7wtGI3NrRyxmxhJY25Va5VqVvpgQK27gxa4m0Fg5AWg5gmZZtY7Vswq/waLBxRgU0P2CoDLrqr95SBnkGuiPgVcurisPDp6VIp7a7Ctesc2LwTdyrHdH9Fxq7BVCHw8/PDmDFjxBpBEMQAoLYSRY3hmJiqVumZkxKC8u9rYSx91icYG42xQ31Q0plKjX2eGry1uQgl5yIwNt2+rFXX0VPX6X48dNhhHIb97A2MjBerTQUGl38Iwm56HWMj9+Dg94m4aLooNdiqhRbU/eMvMqv72YK6fz+G/Z9+I9YJgnAbQ+xSh4n71NRNr2F3Lptb29Q9K9BXobOv7OconmrWFn6dxAq8WRSNG6KK8ev1wOInYrBvJ3Djf8mhCmPFPckFz6vtRaPw83pcdg3rj7LvE+mz9Rz2bdX3xeb+fRuptv5reQ+iql/IIYMbWtxHtapimIvhDmN/jNUD2+uP1la1wqG1Tw5yNPh9dhAyMD5r+yqD9vdNvo76fUPoivdhBCzv2SpHOr+Oeg1ecTE/Br/T3kvpnXbpOoZ32vguam3QhRLEc42vkO6dtk2r4ukwBNJOyCAhEw8/OAOxZ/6DP6/6Pf4lNhvx0JBBKU7+MQO7Hs/AtzuPi232eMfMxvgLi5CvHLfr8Tvwg/JyDs9YhSDl9la/d4vt+0yh4MewZT4pAwTRWXLzkKW5S0tb+Y/qvXxdWdwJB/AfTlbqN1u4X1l4IQjpj6nuV83lumjzcUVUMSEkrqEssht2zrKJiPryc+u+tbkWxKSxH11rPWSXKP62Ag0sbJARg5iKcnxzVuzgqD+6rFyw1te1ucAM0VaVCKTPAN5/YA/yWf3+a5gyoX5WrUch1NqKbOGTZw+idtxkrFkWq5g6NuLT5mIVK2csjimJHo+sTOUchUXIOdSE4BFSeENhTko0AhQBuYELhDKse0X5zuAELHz6Omx81cxtztoyApVPiXYoy6YCb6RkTnWjPyrxadO4EOX3RW6ri9iErNaWPfhhtP6ezFk2TX/f2GKidNhQ+peZiPizldi3V1YGnF+HEZw8GS/MZ/1Wj8n3ScCCn+iPsWF/Hdv/B7tX6iYZ/l4r77Rv8gQs5u+o8m4tMVcGWDlnrb+bjkZj4SOTMMe8IZ2mbw87VAT996+uRT1fOYOzNa7+ChEE0fsoP6Sz4hQhdhTvaHX/Fbavz7cTOO2xff1XVguQcUAR7OW2VdcprEBhYziuTQtHeX4lakvrYRHnScocjSTF4v7oTZsicmBzMQ4Y2iq76Uty99qsSEbaKFwW14z8r36wCTJFwL+904IAg4DXWdmsXadaERIVxoXS9k+PKMI+yhreYAJl4ujzduddfbciSJiAPqcI88cUxeAZWZjU4K3Hdunatz2/QlG89Djtj0BnZQuFJT5xOOL43vaIxdVTI1CuO3cZ/r7b5J7ER2OunWIjI/r5KltmqkqKVUF14zo6S7wM+4oVBSx8CIbwnQxn13ERRWlYn9uIpPkTsGR5iurNed6m4My5ahRXEFQFT8X+ubvI8c14IisLWU68AwxTheDUqVM4cuSIWCMIgug+6k6fUdR5ezTh5xLM08B/nMWyQnKzukBcVJBwIdfgm8JmBPuetll7CEDUeHGyYM3i1hbZ3e4qjag8aKKtBAchXjqX/r4w4f2JzSvCha5izc8cyYWuqqxIFqqMrBgM1lu6zGJ+Tb5vjsJAHSEkCEkuP0DVI2K7r9dhlSFUxJJUVe+RdoyZ18OxF0mjvetwautxQPoiT5DVeSPav44rHNhcgK/r4jB1XD1ynjFRKOLH40mpre6+1+5iqhA0NTVh7969Yo0gCKLnqa2sdu1HlrlWb1Jj59oPtGoVi/1uwt25jqw9ZjnqsvbVpTNDvazU1aPExL3sCG7Nc4tZHelR3l4CofAyWC1dRYlalhag9NcWrlFDM12EQai2B4uzy/eUL4bnoB+5YgstuYMr1+kptDDIH1noaaVJKIB5iYxtvesLnTesK+nbIQMXOH+qCmf9ExF2qdhAEISHwKzxGgRY46gqc5ap7tOcbZJo4q57V8MIIqbrpiXlyFOhwcMQBgvbbXLL8T2Lxf880eZOVxSa/54e0b5AN5J7BLtKQzH5vlTMCC7V3y8zeLjCByVFJyRLVyYWyxd0gYdAUTRuTDaEL5yiuuTj01LdEu5m4Q3ndOw63QXzztyaXI+cPxThH8JTsPA+23uhKnzu5WI4hCUVbtiADc8/iJtGi20meObERKH3IeneDOXf2kgTKrYtQPG3YhTBmGPS6APbyIP91rwChnHEAY0yIIiugyWmiaxsJ25TZ6MMtIxrq9vWQSa18Tg5bm2cgKckNx+WqRcCH5lnfdtgrt8C4C4HfeCJXVL2uDHrmyMy7kNsSWBalr+a9S1/ZiJMTU6UQw36LHRb8qKze8oR/VJHFkji0bS/0ggCjvrsbFn7yv7PTyAiLRKFa1ztjxjNoAubiPuhxelN7xlD3x77SZTkZ2xsK0P/fVvCoHRtE1y6DktedJCw6Mp1zK7BEXkhSWK/7rlr9+ms9P6bPUfp/6O969jan4DMhx/EjNhmHN/xIn77XrHYroeqHRIEQfRVuMDomhkcO4YbygvRqyRkPowHZ0Q6VQj6fciAIAiiX8IsSp47YZ75TxBWwtKx4JJY4MxB5DpQBhikEBAEQfQlmFdAZJyr7nz3IunEwIJ5Bjb85mZceHoHnmln2KFpyCA4OBjTp09Hdna22EIQBEEQRH/Gs6sdEgRBEATRI1DIgCAIgiAIUggIgiAIgiCFgCAIgiAIBVIICIIgCIIghYAgCIIgCKNC8ItXsX3HDmzP3oI3H71WKvVIEARBEER/xtRD4OUXgoRZS/HbhXZFIQmCIAiC6IfoFYLf34U5s2/Aul2VOI/BiEueDbmUBEEQBEEQ/RMTD0E1tn5eiNM0XRFBEARBDBicJhV6ezsoKO5zPVay2sovr8C1YhNBEARBEH0Xc4Wg8DTOKH9Cx6TjukgvdRtBEARBEP0WB7UM4rFw3Yu4fVI4eFph8Ye4avF6nOP7CIIgCILobzgIGQxGsD+NMCAIgiCIgYK5QpByK64YHwzf03vx4s1zMJu8AwRBEATRrzFXCKIC4Kf8OV30Gf5WZRJRsCYVrsFPLxbbCIIgCILoszgdZeCQ1m0oLFb+eoXjwlTSCAiCIAiir2OiEIRh1qxRCHM6uKAV27hGQBAEQRBEf0CvEPBaBh/g0Zmx8EEbTpfsUkS/Cd6X4KeXjQbaivGvP/1HbCQIgiAIoq9iGjJoa67F8X//EWtfqhVbbPhcvxIbXroTqed34/dLn8U2sZ0gCIIgiL6Lg3kICIIgCIIYSHQsqZAgCIIgiH4FKQQEQRAEQZBCQBAEQRAEKQQEQRAEQQD4/1Q9Sw84xU4RAAAAAElFTkSuQmCC;" vertex="1" parent="WIyWlLk6GJQsqaUBKTNV-1">
          <mxGeometry x="-210" y="70" width="351.01" height="100" as="geometry" />
        </mxCell>
      </root>
    </mxGraphModel>
  </diagram>
</mxfile>
